<svg width="500" height="500" viewBox="0 0 500 500" fill="none" xmlns="http://www.w3.org/2000/svg">
<rect width="500" height="500" fill="black"/>
<g filter="url(#filter0_f_8_91)">
<path d="M249.444 373.519C249.444 373.519 364.118 343.192 364.118 257.188L378.333 248.251L364.118 239.314L378.333 230.378L364.118 221.441V203.568V185.695V149.948V114.202L301.639 132.596C267.566 142.628 231.323 142.628 197.25 132.596L134.771 114.202V149.948V167.821V185.695V203.568V221.441L120.556 230.378L134.771 239.314L120.556 248.251L134.771 257.188C134.771 343.192 249.444 373.519 249.444 373.519Z" fill="#F1CA77"/>
</g>
<path d="M249.445 406.215C249.445 406.215 364.118 348.879 364.118 262.874L378.333 253.937L364.118 245.001L378.333 236.064L364.118 227.127V209.254V191.381V155.634V119.888L249.445 162.179L134.771 119.888V155.634V173.508V191.381V209.254V227.127L120.556 236.064L134.771 245.001L120.556 253.937L134.771 262.874C134.771 348.879 249.445 406.215 249.445 406.215Z" fill="#233447"/>
<path d="M249.445 399.107C249.445 399.107 364.118 348.879 364.118 262.874L378.333 253.937L364.118 245.001L378.333 236.064L364.118 227.127V209.254V191.381V155.634V119.888L249.445 162.179L134.771 119.888V155.634V173.508V191.381V209.254V227.127L120.556 236.064L134.771 245.001L120.556 253.937L134.771 262.874C134.771 348.879 249.445 399.107 249.445 399.107Z" fill="#123AF0"/>
<path d="M249.445 392C249.445 392 364.118 348.879 364.118 262.874L378.333 253.937L364.118 245.001L378.333 236.064L364.118 227.127V209.254V191.381V155.634V119.888L249.445 162.179L134.771 119.888V155.634V173.508V191.381V209.254V227.127L120.556 236.064L134.771 245.001L120.556 253.937L134.771 262.874C134.771 348.879 249.445 392 249.445 392Z" fill="#CD6116"/>
<path d="M249.445 382.049C249.445 382.049 364.118 348.879 364.118 262.874L378.333 253.937L364.118 245.001L378.333 236.064L364.118 227.127V209.254V191.381V155.634V119.888L249.445 162.179L134.771 119.888V155.634V173.508V191.381V209.254V227.127L120.556 236.064L134.771 245.001L120.556 253.937L134.771 262.874C134.771 348.879 249.445 382.049 249.445 382.049Z" fill="#E4751F"/>
<path d="M249.445 370.676C249.445 370.676 364.118 348.879 364.118 262.874L378.333 253.937L364.118 245.001L378.333 236.064L364.118 227.127V209.254V191.381V155.634V119.888L249.445 162.179L134.771 119.888V155.634V173.508V191.381V209.254V227.127L120.556 236.064L134.771 245.001L120.556 253.937L134.771 262.874C134.771 348.879 249.445 370.676 249.445 370.676Z" fill="#F6851B"/>
<path d="M249.445 352.196C249.445 352.196 364.118 348.879 364.118 262.874L378.333 253.937L364.118 245.001L378.333 236.064L364.118 227.127V209.254V191.381V155.634V119.888C290.105 147.184 208.784 147.184 134.771 119.888V155.634V173.508V191.381V209.254V227.127L120.556 236.064L134.771 245.001L120.556 253.937L134.771 262.874C134.771 348.879 249.445 352.196 249.445 352.196Z" fill="url(#paint0_linear_8_91)"/>
<defs>
<filter id="filter0_f_8_91" x="94.9674" y="88.6133" width="308.954" height="310.494" filterUnits="userSpaceOnUse" color-interpolation-filters="sRGB">
<feFlood flood-opacity="0" result="BackgroundImageFix"/>
<feBlend mode="normal" in="SourceGraphic" in2="BackgroundImageFix" result="shape"/>
<feGaussianBlur stdDeviation="12.7941" result="effect1_foregroundBlur_8_91"/>
</filter>
<linearGradient id="paint0_linear_8_91" x1="144.012" y1="132.09" x2="425.482" y2="446.967" gradientUnits="userSpaceOnUse">
<stop stop-color="#F1CA77"/>
<stop offset="1" stop-color="#F6851B"/>
</linearGradient>
</defs>
</svg>
