<svg width="334" height="334" viewBox="0 0 334 334" fill="none" xmlns="http://www.w3.org/2000/svg">
<path d="M328.276 166.608C328.276 77.322 255.895 4.94101 166.608 4.94101C77.3218 4.94101 4.9408 77.322 4.9408 166.608C4.9408 255.895 77.3218 328.276 166.608 328.276C255.895 328.276 328.276 255.895 328.276 166.608Z" fill="white" stroke="black" stroke-width="9.88161"/>
<mask id="mask0_1_18" style="mask-type:luminance" maskUnits="userSpaceOnUse" x="0" y="0" width="334" height="334">
<path d="M166.609 0C74.5939 0 0 74.5929 0 166.608V166.609C0 258.624 74.5929 333.217 166.608 333.217C258.623 333.217 333.217 258.624 333.217 166.609V166.608C333.217 74.5929 258.624 0 166.609 0Z" fill="white"/>
</mask>
<g mask="url(#mask0_1_18)">
<path d="M215.748 217.831H116.911L120.732 189.193H211.935L215.748 217.831Z" fill="black"/>
<path d="M223.458 275.693H109.199L113.02 247.063H219.645L223.458 275.693Z" fill="black"/>
<path d="M209.236 103.447H124.976V97.573C124.976 85.003 135.162 74.817 147.732 74.817H186.487C199.057 74.817 209.244 85.003 209.244 97.573V103.447H209.236Z" fill="black"/>
<path d="M276.572 303.228H56.649V333.217H276.572V303.228Z" fill="#F2C978"/>
<path d="M81.961 111.892V146.819V147.218V182.145L158.011 147.018L81.961 111.892Z" fill="#F2C978"/>
<path d="M250.984 182.769V147.843V147.443V112.517L174.934 147.643L250.984 182.769Z" fill="#F2C978"/>
</g>
<path d="M328.276 166.608C328.276 77.322 255.895 4.94101 166.608 4.94101C77.3218 4.94101 4.9408 77.322 4.9408 166.608C4.9408 255.895 77.3218 328.276 166.608 328.276C255.895 328.276 328.276 255.895 328.276 166.608Z" stroke="black" stroke-width="9.88161"/>
</svg>
